<mxfile host="augment" editor="drawio" version="24.7.0" type="device">
  <diagram id="modules-collab" name="图1-4 四大核心技术模块协同架构图">
    <mxGraphModel dx="1024" dy="768" grid="1" gridSize="10" guides="1" tooltips="1" connect="1" arrows="1" fold="1" page="1" pageScale="1" pageWidth="1169" pageHeight="827" math="0" shadow="0">
      <root>
        <mxCell id="0"/>
        <mxCell id="1" parent="0"/>
        <mxCell id="title" value="四大模块：表征学习→知识网络→RAG/Graph‑RAG→CoT/智能体→输出闭环" style="text;html=1;strokeColor=none;fillColor=none;align=center;verticalAlign=middle;fontSize=18;fontStyle=1;fontColor=#2E2E2E;whiteSpace=wrap;" parent="1" vertex="1">
          <mxGeometry x="160" y="20" width="840" height="30" as="geometry"/>
        </mxCell>
        <mxCell id="rep" value="表征学习与数据工程\n(解析/清洗/对齐/融合)" style="rounded=1;whiteSpace=wrap;html=1;fillColor=#dae8fc;strokeColor=#6c8ebf;" parent="1" vertex="1">
          <mxGeometry x="60" y="120" width="240" height="90" as="geometry"/>
        </mxCell>
        <mxCell id="kg" value="因果知识网络\n(实体/关系/事件/社区)" style="rounded=1;whiteSpace=wrap;html=1;fillColor=#e1d5e7;strokeColor=#9673a6;" parent="1" vertex="1">
          <mxGeometry x="340" y="120" width="240" height="90" as="geometry"/>
        </mxCell>
        <mxCell id="rag" value="Graph‑RAG 检索增强\n(向量/路径/融合/上下文)" style="rounded=1;whiteSpace=wrap;html=1;fillColor=#ffe6cc;strokeColor=#d79b00;" parent="1" vertex="1">
          <mxGeometry x="620" y="120" width="240" height="90" as="geometry"/>
        </mxCell>
        <mxCell id="cot" value="CoT 推理/智能体\n(多路径/验证/收敛/策略)" style="rounded=1;whiteSpace=wrap;html=1;fillColor=#f8cecc;strokeColor=#b85450;" parent="1" vertex="1">
          <mxGeometry x="900" y="120" width="240" height="90" as="geometry"/>
        </mxCell>
        <mxCell id="edge1" style="edgeStyle=orthogonalEdgeStyle;rounded=0;html=1;strokeWidth=2;strokeColor=#6c8ebf;" parent="1" source="rep" target="kg" edge="1"><mxGeometry relative="1" as="geometry"/></mxCell>
        <mxCell id="edge2" style="edgeStyle=orthogonalEdgeStyle;rounded=0;html=1;strokeWidth=2;strokeColor=#9673a6;" parent="1" source="kg" target="rag" edge="1"><mxGeometry relative="1" as="geometry"/></mxCell>
        <mxCell id="edge3" style="edgeStyle=orthogonalEdgeStyle;rounded=0;html=1;strokeWidth=2;strokeColor=#d79b00;" parent="1" source="rag" target="cot" edge="1"><mxGeometry relative="1" as="geometry"/></mxCell>
        <mxCell id="fb" value="反馈：溯源/专家标注→样本与索引演化" style="text;html=1;strokeColor=none;fillColor=none;align=center;verticalAlign=middle;fontSize=12;fontColor=#82b366;whiteSpace=wrap;" parent="1" vertex="1">
          <mxGeometry x="340" y="240" width="600" height="30" as="geometry"/>
        </mxCell>
        <mxCell id="edge4" style="edgeStyle=orthogonalEdgeStyle;dashed=1;html=1;strokeWidth=1.5;strokeColor=#82b366;" parent="1" source="cot" target="rep" edge="1">
          <mxGeometry relative="1" as="geometry">
            <Array as="points"><mxPoint x="1020" y="240"/><mxPoint x="180" y="240"/></Array>
          </mxGeometry>
        </mxCell>
      </root>
    </mxGraphModel>
  </diagram>
</mxfile>

